<?xml version="1.0" encoding="utf-8"?>
<!-- Generator: Adobe Illustrator 19.2.0, SVG Export Plug-In . SVG Version: 6.00 Build 0)  -->
<svg version="1.1" id="New_message" xmlns="http://www.w3.org/2000/svg" xmlns:xlink="http://www.w3.org/1999/xlink" x="0px"
	 y="0px" viewBox="0 0 20 20" style="enable-background:new 0 0 20 20;" xml:space="preserve">
<style type="text/css">
	.st0{fill:#C9E2FF;}
</style>
<path class="st0" d="M18.2,1.8C17.1,0.7,16.1,1,16.1,1L7.5,9.7L6,14l4.3-1.5L19,3.9C19,3.9,19.3,2.9,18.2,1.8z M10.6,11.6l-0.5,0.5
	l-1.5,0.5c-0.1-0.2-0.2-0.5-0.5-0.7c-0.3-0.3-0.5-0.4-0.7-0.5l0.5-1.5l0.5-0.5c0,0,0.8-0.1,1.5,0.7C10.7,10.8,10.6,11.6,10.6,11.6z
	 M16,17H3V4h5l2-2H3C1.9,2,1,2.9,1,4v13c0,1.1,0.9,2,2,2h13c1.1,0,2-0.9,2-2v-7l-2,2V17z"/>
</svg>
